<?xml version="1.0" standalone="no"?>
<!DOCTYPE svg PUBLIC "-//W3C//DTD SVG 20010904//EN"
 "http://www.w3.org/TR/2001/REC-SVG-20010904/DTD/svg10.dtd">
<svg version="1.0" xmlns="http://www.w3.org/2000/svg"
 width="260.000000pt" height="260.000000pt" viewBox="0 0 260.000000 260.000000"
 preserveAspectRatio="xMidYMid meet">
<metadata>
Created by potrace 1.14, written by Peter Selinger 2001-2017
</metadata>
<g transform="translate(0.000000,260.000000) scale(0.100000,-0.100000)"
fill="#000000" stroke="none">
<path d="M836 2074 c-5 -14 -9 -14 -24 -3 -9 7 -14 9 -10 5 4 -5 3 -16 -4 -23
-9 -11 -9 -17 3 -24 10 -6 11 -9 1 -9 -7 0 -10 -5 -6 -11 4 -7 -1 -7 -16 1
-20 11 -21 10 -9 -12 11 -20 10 -21 -3 -11 -12 10 -15 10 -15 0 0 -6 -4 -21
-9 -31 -5 -15 -4 -17 6 -11 8 5 11 4 6 -3 -3 -6 -15 -9 -26 -7 -12 2 -18 0
-15 -6 4 -5 2 -9 -3 -9 -6 0 -13 -8 -17 -17 -5 -15 -4 -16 6 -5 24 23 28 12 5
-13 -13 -14 -27 -25 -32 -25 -5 0 -2 5 6 10 8 5 10 10 4 10 -6 0 -18 -8 -25
-17 -10 -11 -10 -14 -1 -9 6 4 12 3 12 -2 0 -13 -49 -21 -56 -10 -4 6 -10 5
-15 -3 -7 -11 -9 -11 -9 1 0 13 -1 13 -10 0 -8 -12 -10 -12 -10 -1 0 10 -3 11
-14 2 -11 -9 -16 -9 -21 0 -6 8 -10 7 -16 -2 -7 -11 -9 -11 -9 1 0 13 -1 13
-10 0 -7 -11 -10 -11 -10 -2 0 9 -5 10 -19 2 -14 -7 -22 -7 -27 1 -4 8 -9 7
-15 -2 -5 -8 -9 -9 -9 -4 0 6 -13 10 -29 10 -20 1 -28 -4 -26 -15 1 -8 -2 -23
-7 -32 -6 -13 -5 -18 4 -18 10 0 10 -2 -1 -9 -9 -6 -10 -11 -2 -15 7 -4 7 -15
1 -31 -6 -16 -5 -25 3 -29 8 -3 8 -5 -2 -5 -11 -1 -11 -4 0 -18 12 -14 12 -15
1 -9 -11 7 -12 4 -3 -13 9 -16 9 -21 -1 -21 -10 0 -10 -2 1 -9 11 -7 11 -10 0
-15 -11 -5 -11 -7 -1 -12 10 -5 10 -9 1 -20 -9 -11 -9 -14 1 -14 9 0 9 -4 -1
-17 -12 -14 -12 -16 0 -8 10 6 13 4 9 -6 -4 -11 1 -15 21 -15 14 1 29 6 33 11
5 6 8 6 8 -1 0 -6 7 -11 15 -12 8 -1 22 -3 30 -4 8 -1 15 -5 15 -10 0 -11 -7
-10 -30 2 -13 7 -21 7 -25 0 -4 -6 -3 -10 2 -9 21 4 34 -2 27 -12 -4 -8 0 -8
15 0 12 7 25 10 30 7 4 -3 8 1 8 9 0 8 -5 11 -10 8 -6 -3 -7 -1 -3 6 5 7 16 9
28 5 11 -3 18 -2 15 2 -3 5 10 9 29 9 19 0 34 -4 34 -10 0 -5 5 -3 10 5 8 12
10 12 10 1 0 -10 3 -11 13 -2 10 8 17 7 25 -1 9 -9 12 -9 12 3 0 12 2 12 10
-1 9 -13 10 -13 10 0 0 13 1 13 10 0 9 -13 11 -13 20 0 8 12 10 12 10 1 0 -11
3 -11 15 -1 12 10 15 10 15 0 0 -9 4 -9 17 1 11 10 14 10 9 2 -9 -16 6 -17 22
-1 9 9 12 9 12 -1 0 -10 3 -11 13 -3 10 9 17 6 29 -8 9 -10 14 -21 11 -24 -4
-3 2 -16 13 -28 10 -12 15 -19 9 -16 -5 3 -16 0 -23 -8 -9 -10 -9 -14 -1 -14
6 0 9 -7 5 -15 -3 -9 0 -15 9 -15 16 0 16 20 0 33 -6 5 -4 7 5 4 8 -2 15 -8
15 -13 0 -5 4 -15 9 -23 6 -9 5 -12 -1 -8 -17 11 -38 -20 -24 -36 6 -8 7 -17
3 -21 -4 -4 -2 -7 3 -6 21 5 29 -1 15 -10 -11 -7 -11 -10 -2 -10 8 0 10 -5 6
-12 -4 -7 -9 -24 -10 -38 -1 -14 0 -19 3 -12 2 6 9 12 14 12 11 0 7 -23 -6
-32 -6 -5 -3 -8 6 -8 9 0 20 -7 23 -16 3 -8 2 -12 -4 -9 -5 3 -7 -3 -5 -15 2
-11 0 -22 -5 -25 -5 -3 -6 -13 -3 -23 6 -15 5 -15 -10 -3 -13 10 -17 10 -17 1
0 -10 -4 -10 -16 1 -13 10 -17 10 -25 -2 -7 -11 -9 -11 -9 0 0 11 -3 11 -15 1
-12 -10 -15 -10 -15 0 0 9 -4 9 -17 -1 -11 -10 -14 -10 -9 -1 9 15 -6 16 -22
0 -9 -9 -12 -9 -12 1 0 11 -3 11 -17 0 -9 -8 -14 -9 -10 -3 3 6 0 11 -8 11 -8
0 -12 -4 -9 -8 2 -4 -5 -7 -16 -6 -11 1 -20 5 -20 10 0 5 -6 4 -14 -2 -10 -9
-16 -9 -21 -1 -5 8 -11 7 -23 -2 -13 -11 -15 -11 -8 2 4 8 -2 4 -13 -10 -24
-29 -26 -40 -8 -40 8 0 7 -4 -3 -10 -13 -9 -13 -10 0 -10 12 0 12 -2 1 -9 -9
-6 -10 -11 -2 -15 8 -5 8 -13 1 -26 -7 -13 -6 -20 3 -23 9 -4 8 -6 -2 -6 -11
-1 -11 -4 0 -18 12 -14 12 -15 1 -9 -11 7 -12 4 -3 -13 9 -16 9 -21 -1 -21
-10 0 -10 -2 1 -9 11 -7 11 -9 0 -14 -12 -5 -12 -7 0 -15 9 -7 10 -11 2 -17
-9 -5 -9 -11 1 -23 11 -13 11 -14 0 -8 -11 7 -12 4 -3 -13 7 -11 14 -21 17
-21 3 0 2 5 -1 10 -3 6 -1 10 4 10 6 0 11 -5 11 -11 0 -8 4 -8 14 0 11 9 16 9
21 0 6 -8 10 -7 16 2 7 11 9 11 9 -1 0 -13 1 -13 10 0 8 12 10 12 10 1 0 -10
3 -11 14 -2 11 9 16 9 21 0 6 -8 10 -7 16 2 7 11 9 11 9 -1 0 -13 1 -13 10 0
7 11 10 11 10 2 0 -9 5 -10 18 -3 13 7 23 6 30 -1 9 -9 12 -8 12 2 0 12 2 12
9 2 11 -17 21 -17 32 0 7 11 9 11 9 -1 0 -11 3 -11 15 -1 12 10 15 10 15 0 0
-10 3 -10 14 -1 11 9 16 9 22 0 5 -8 3 -9 -6 -4 -9 6 -11 4 -5 -5 6 -10 10
-10 19 2 10 13 13 12 30 -4 11 -10 21 -16 24 -13 3 2 14 0 25 -6 10 -6 17 -7
14 -2 -3 4 1 14 9 21 8 7 14 9 14 5 0 -4 5 -1 10 7 8 12 10 12 10 -5 0 -16 2
-17 9 -6 11 17 51 22 51 7 0 -6 5 -4 10 4 8 12 10 12 10 1 0 -10 3 -11 13 -2
10 8 17 7 25 -1 9 -9 12 -9 12 2 0 13 2 13 10 0 9 -13 10 -13 10 0 0 13 1 13
10 0 9 -13 11 -13 20 0 8 12 10 12 10 1 0 -11 3 -11 15 -1 12 10 15 10 15 0 0
-9 3 -10 13 -1 10 8 17 7 25 -1 9 -9 12 -9 12 2 0 13 2 13 10 0 9 -13 11 -13
20 0 9 13 10 13 10 0 0 -13 1 -13 10 0 9 13 10 13 10 0 0 -13 1 -13 10 0 8 12
10 12 10 1 0 -11 3 -11 15 -1 12 10 15 10 15 0 0 -9 3 -10 13 -1 10 8 17 7 25
-1 9 -9 12 -9 12 2 0 13 2 13 10 0 9 -13 11 -13 20 0 9 13 10 13 10 0 0 -13 1
-13 10 0 9 13 10 13 10 0 0 -13 1 -13 10 0 8 12 10 12 10 1 0 -11 3 -11 15 -1
12 10 15 10 15 0 0 -9 3 -10 13 -1 10 8 17 7 25 -1 9 -9 12 -9 12 3 0 12 2 12
10 -1 9 -13 11 -13 20 0 9 13 10 13 10 0 0 -13 1 -13 10 0 9 13 10 13 10 0 0
-13 1 -13 10 0 8 12 10 12 10 1 0 -11 3 -11 15 -1 12 10 15 10 15 0 0 -10 3
-10 14 -1 11 9 16 9 21 0 6 -8 10 -7 16 2 5 9 9 10 9 3 0 -7 7 -14 14 -17 10
-4 13 -1 9 9 -6 17 8 18 27 2 12 -11 12 -10 1 5 -10 13 -11 17 -1 17 10 0 10
3 1 14 -9 11 -9 16 0 21 8 6 7 10 -2 16 -11 7 -11 9 1 9 13 0 13 1 0 10 -10 6
-11 10 -3 10 15 0 13 21 -2 32 -6 5 -5 8 4 8 9 0 10 4 4 13 -11 14 -11 27 0
45 5 7 3 12 -5 12 -8 0 -9 3 -3 8 15 11 17 32 2 32 -9 0 -8 3 2 9 9 6 10 10 2
16 -9 5 -9 10 0 21 12 15 10 16 -58 18 -18 0 -33 4 -33 8 0 4 -5 8 -11 8 -5 0
-8 -4 -5 -8 3 -5 -1 -9 -9 -9 -8 0 -15 5 -15 11 0 6 -5 4 -10 -4 -8 -12 -10
-12 -10 -1 0 11 -3 11 -15 1 -12 -10 -15 -10 -15 0 0 10 -3 10 -15 0 -12 -10
-15 -9 -15 6 0 15 -2 16 -9 5 -5 -7 -14 -10 -20 -7 -6 4 -11 1 -11 -6 0 -9 -3
-9 -10 2 -7 11 -10 11 -10 2 0 -17 -31 -11 -48 8 -8 8 -11 10 -8 3 4 -6 2 -14
-4 -18 -5 -3 -10 -1 -10 5 0 8 -6 8 -20 0 -15 -8 -20 -8 -20 2 0 9 -3 9 -10
-2 -8 -12 -11 -13 -19 -1 -5 8 -11 9 -15 3 -5 -9 -26 -9 -46 -2 -3 1 -9 2 -13
1 -5 -1 -7 6 -5 16 2 10 10 17 16 16 7 -2 12 1 12 5 0 5 7 9 15 9 8 0 15 -5
15 -10 0 -6 5 -6 13 0 17 13 36 10 47 -7 8 -12 10 -12 10 5 0 17 2 17 10 5 8
-12 10 -12 10 -1 0 11 3 11 17 0 9 -8 14 -9 11 -4 -8 12 40 13 60 2 7 -5 12
-3 12 5 0 9 3 9 10 -2 8 -12 10 -12 10 -1 0 11 3 11 15 1 12 -10 15 -10 15 1
0 9 3 10 8 4 11 -15 32 -17 32 -2 0 8 4 7 10 -3 9 -13 10 -13 10 0 0 13 1 13
10 0 8 -12 10 -12 10 -1 0 11 3 11 17 0 9 -8 14 -9 10 -3 -9 16 56 12 69 -5 9
-11 12 -12 19 -1 5 9 4 11 -3 6 -7 -4 -12 -2 -12 3 0 12 27 10 47 -2 6 -4 14
-3 18 3 4 7 13 6 27 -1 12 -7 18 -7 14 -1 -7 11 12 11 32 -1 7 -5 12 -3 12 5
0 10 2 10 9 0 4 -8 12 -14 16 -14 4 0 12 6 16 14 7 11 9 11 9 -1 0 -9 4 -10
13 -4 14 11 27 11 45 0 7 -5 12 -3 12 5 0 8 3 9 8 3 11 -15 32 -17 32 -2 0 8
4 7 10 -3 9 -13 11 -13 20 0 8 12 10 13 10 1 0 -8 3 -11 7 -8 3 4 12 2 20 -5
11 -9 12 -7 6 7 -5 15 -3 17 11 12 11 -5 15 -3 10 5 -5 8 -1 9 11 4 18 -7 18
-6 1 13 -13 15 -14 20 -4 24 10 4 10 8 -2 16 -12 9 -13 12 -1 20 9 6 10 10 2
16 -9 5 -9 10 0 21 9 11 8 14 -2 14 -11 0 -11 2 1 10 13 9 13 10 0 10 -12 0
-12 2 -1 9 9 6 10 10 2 16 -9 5 -9 10 0 21 9 11 8 14 -2 14 -8 0 -5 6 7 15 15
12 16 14 3 15 -15 0 -24 30 -9 30 4 0 7 7 7 15 0 8 -3 13 -5 10 -3 -3 -11 3
-19 13 -9 10 -11 11 -7 2 7 -13 5 -13 -8 -2 -9 7 -19 9 -21 5 -6 -10 -48 -10
-64 0 -7 4 -14 3 -18 -3 -4 -7 -13 -6 -27 1 -12 7 -18 7 -14 1 7 -11 -12 -11
-31 1 -8 5 -13 3 -13 -5 0 -10 -2 -10 -9 0 -11 17 -21 17 -32 0 -7 -11 -9 -11
-9 1 0 10 -4 11 -12 3 -21 -17 -24 -17 -41 -3 -14 11 -17 11 -17 0 0 -12 -2
-12 -9 -1 -11 17 -21 17 -32 0 -7 -11 -9 -11 -9 1 0 10 -3 11 -14 2 -11 -9
-16 -9 -21 0 -6 8 -10 7 -16 -2 -7 -12 -9 -12 -9 0 0 11 -3 11 -17 0 -11 -10
-14 -10 -9 -1 4 6 2 12 -3 12 -6 0 -11 -6 -11 -12 0 -7 -5 -5 -11 5 -5 9 -15
17 -22 17 -7 0 -6 -4 3 -10 8 -5 10 -10 4 -10 -6 0 -18 8 -25 17 -10 11 -10
14 -1 9 8 -5 12 -1 12 11 0 15 2 16 10 3 9 -14 15 -7 11 14 -1 5 6 6 15 2 14
-5 15 -4 5 8 -11 13 -9 15 7 11 12 -2 27 4 34 13 12 16 11 16 -6 2 -17 -13
-19 -13 -14 0 3 8 15 15 26 14 16 0 19 3 12 12 -8 8 -4 13 11 17 11 3 19 9 16
14 -3 4 2 17 10 28 15 19 15 19 8 -4 -6 -21 -5 -22 8 -10 8 8 12 19 10 26 -3
8 3 11 16 8 15 -3 19 0 14 8 -16 26 -12 48 10 58 18 8 14 9 -18 5 -37 -5 -38
-4 -21 9 25 19 16 19 -19 1 -15 -8 -21 -16 -14 -18 14 -5 4 -28 -12 -28 -6 0
-7 5 -3 12 4 7 3 8 -5 4 -6 -4 -9 -12 -6 -17 4 -5 -1 -9 -9 -9 -9 0 -13 -6
-10 -15 4 -10 0 -13 -15 -10 -24 4 -37 -10 -20 -21 8 -5 9 -3 4 6 -5 9 -4 11
4 6 6 -4 9 -12 5 -17 -3 -5 -9 -7 -14 -4 -13 8 -31 -21 -24 -41 3 -11 2 -15
-3 -9 -4 6 -15 11 -23 13 -11 3 -9 -3 5 -20 15 -17 16 -19 3 -9 -13 10 -18 10
-18 2 0 -7 -5 -9 -10 -6 -15 9 -40 -14 -33 -31 4 -10 0 -12 -13 -7 -10 4 -15
2 -11 -4 8 -13 -22 -55 -34 -48 -5 4 -9 2 -9 -2 0 -10 -121 -10 -137 0 -8 5
-13 3 -13 -5 0 -9 -3 -9 -10 2 -8 12 -10 12 -10 1 0 -11 -3 -11 -15 -1 -12 10
-15 10 -15 -1 0 -9 -3 -10 -8 -4 -11 15 -32 17 -32 2 0 -8 -4 -7 -10 3 -9 13
-10 13 -10 0 0 -13 -1 -13 -10 0 -5 8 -10 10 -10 4 0 -6 -7 -11 -15 -11 -8 0
-12 4 -9 9 3 4 0 8 -5 8 -6 0 -11 -6 -11 -12 0 -9 -4 -8 -10 2 -9 13 -10 13
-10 0 0 -13 -1 -13 -10 0 -8 12 -10 12 -10 1 0 -10 -3 -11 -13 -2 -8 6 -17 8
-21 4 -11 -11 -46 -10 -39 1 3 6 0 6 -7 -1 -11 -10 -16 -9 -27 5 -8 9 -12 12
-9 6 3 -7 -1 -14 -9 -18 -8 -3 -15 0 -15 7 0 8 -4 6 -10 -3 -8 -12 -10 -12
-10 -1 0 10 -3 11 -14 2 -11 -9 -15 -9 -19 1 -4 10 -6 10 -6 -1 -1 -11 -4 -11
-16 -1 -12 10 -15 10 -15 -1 0 -11 -2 -11 -10 1 -9 13 -10 13 -10 0 0 -9 -3
-11 -8 -5 -9 13 -32 18 -32 7 0 -5 -7 -9 -15 -9 -8 0 -15 5 -15 11 0 6 -5 4
-11 -4 -9 -12 -10 -10 -6 8 5 19 3 21 -9 11 -19 -16 -18 -4 2 16 15 14 17 14
30 -2 13 -17 14 -17 7 1 -5 15 -3 17 8 10 21 -13 39 -14 39 -1 0 7 5 5 10 -3
7 -11 10 -11 10 -2 0 17 31 11 48 -8 8 -8 11 -10 8 -3 -4 6 -2 14 4 18 5 3 10
1 10 -4 0 -13 22 -10 32 4 5 6 8 4 8 -5 0 -13 1 -13 10 0 9 13 11 13 20 0 8
-13 10 -13 10 -1 0 11 4 9 15 -5 15 -19 15 -19 8 1 -6 17 -4 18 8 8 12 -10 18
-10 27 -1 9 9 12 9 12 0 0 -7 5 -12 11 -12 5 0 8 4 5 8 -3 5 1 9 9 9 8 0 15
-5 15 -11 0 -6 5 -4 10 4 9 13 10 13 10 0 0 -13 1 -13 10 0 6 10 10 11 10 3 0
-7 5 -13 11 -13 5 0 8 4 5 8 -3 5 1 9 9 9 8 0 15 -5 15 -11 0 -6 5 -4 10 4 8
12 10 12 10 1 0 -11 3 -11 15 -1 12 10 15 10 15 0 0 -10 3 -10 15 0 12 10 15
9 15 -6 0 -15 2 -16 9 -5 5 7 14 10 20 7 6 -4 11 -1 11 6 0 9 3 9 10 -2 7 -11
10 -11 10 -2 0 14 31 12 43 -3 4 -6 11 -4 17 5 7 11 10 11 10 2 0 -9 5 -10 18
-3 9 5 21 11 27 13 5 1 9 6 8 11 -2 4 2 7 8 7 6 0 7 5 2 13 -12 20 -12 38 0
31 9 -5 8 -3 0 6 -8 9 -9 19 -2 32 7 13 6 18 -3 18 -9 0 -9 3 2 10 13 9 13 10
0 10 -12 0 -12 2 -1 9 9 6 10 10 2 16 -9 5 -9 10 0 21 9 11 8 14 -2 14 -12 0
-12 2 0 9 9 6 10 10 2 16 -9 5 -9 10 0 21 9 11 9 14 -1 14 -9 0 -9 4 -2 13 7
8 6 18 -4 31 -10 14 -14 16 -14 5 0 -12 -2 -12 -10 1 -9 13 -11 13 -20 0 -9
-13 -10 -13 -10 0 0 13 -1 13 -10 0 -9 -13 -10 -13 -10 0 0 13 -1 13 -10 0 -8
-12 -10 -12 -10 -1 0 11 -3 11 -15 1 -12 -10 -15 -10 -15 0 0 9 -3 10 -13 1
-10 -8 -17 -7 -25 1 -9 9 -12 9 -12 -2 0 -13 -2 -13 -10 0 -9 13 -11 13 -20 0
-9 -13 -10 -13 -10 0 0 13 -1 13 -10 0 -9 -13 -10 -13 -10 0 0 13 -1 13 -10 0
-8 -12 -10 -12 -10 -1 0 11 -3 11 -15 1 -12 -10 -15 -10 -15 0 0 9 -3 10 -13
1 -10 -8 -17 -7 -25 1 -9 9 -12 9 -12 -2 0 -13 -2 -13 -10 0 -8 12 -11 13 -19
1 -7 -11 -9 -11 -14 0 -5 12 -6 12 -6 0 -1 -11 -4 -11 -18 0 -15 12 -16 12 -8
-1 8 -13 7 -13 -8 -1 -14 11 -17 11 -17 0 0 -11 -2 -11 -10 1 -9 13 -10 13
-10 0 0 -12 -2 -12 -9 -1 -6 9 -10 10 -16 2 -5 -9 -10 -9 -21 0 -11 9 -14 8
-14 -2 0 -11 -2 -11 -10 1 -9 13 -10 13 -10 0 0 -11 -2 -12 -8 -3 -5 8 -13 9
-22 3 -9 -5 -19 -5 -27 2 -10 8 -13 7 -13 -3 0 -12 -2 -12 -9 -1 -4 8 -12 14
-16 14 -4 0 -12 -6 -16 -14 -7 -11 -9 -11 -9 1 0 11 -3 11 -15 1 -12 -10 -15
-10 -15 0 0 9 -4 9 -17 -1 -11 -10 -14 -10 -9 -1 4 6 2 12 -3 12 -6 0 -11 -6
-11 -12 0 -10 -2 -10 -9 0 -4 8 -11 13 -15 13 -33 -5 -44 0 -39 19 3 13 0 20
-8 20 -11 0 -11 2 1 10 12 8 12 10 1 10 -11 0 -11 3 0 17 8 9 9 14 2 10 -16
-10 -21 11 -13 54 6 33 5 37 -13 33 -19 -3 -19 -3 -1 17 14 15 15 20 4 17 -10
-2 -14 3 -12 15 4 21 -4 22 -12 1z m14 -28 c0 -2 -7 -7 -16 -10 -8 -3 -12 -2
-9 4 6 10 25 14 25 6z m10 -46 c0 -5 -8 -10 -17 -10 -15 0 -16 2 -3 10 19 12
20 12 20 0z m-62 -123 c14 4 14 3 2 -5 -8 -6 -18 -8 -24 -5 -5 3 -6 1 -2 -5 4
-6 14 -8 24 -5 13 5 14 3 6 -6 -9 -10 -17 -10 -33 -2 -17 10 -19 14 -9 25 7 8
14 10 16 6 2 -5 11 -6 20 -3z m959 -322 c0 -8 -4 -12 -9 -9 -5 3 -6 10 -3 15
9 13 12 11 12 -6z m-841 -194 c-4 -5 -1 -12 4 -14 6 -3 5 -4 -2 -3 -15 3 -23
26 -8 26 6 0 9 -4 6 -9z m182 -204 c7 -5 12 -3 12 5 0 9 3 9 10 -2 8 -12 10
-12 10 -1 0 11 3 11 15 1 12 -10 15 -10 15 1 0 11 2 11 10 -1 9 -13 10 -13 10
0 0 13 1 13 10 0 9 -13 10 -13 10 0 0 13 1 13 10 0 8 -12 10 -12 10 -1 0 11 3
11 15 1 12 -10 15 -10 15 1 0 9 3 10 8 4 10 -14 32 -17 32 -5 0 6 9 1 20 -10
11 -11 20 -23 20 -27 0 -3 -3 -3 -7 0 -3 4 -12 2 -20 -4 -10 -9 -13 -8 -13 1
0 10 -3 10 -15 0 -12 -10 -15 -10 -15 0 0 10 -3 10 -15 0 -12 -10 -15 -9 -15
6 0 15 -2 16 -9 5 -5 -7 -14 -10 -20 -7 -6 4 -11 1 -11 -6 0 -9 -3 -9 -10 2
-7 11 -10 11 -10 2 0 -14 -31 -12 -42 2 -4 6 -13 4 -22 -3 -13 -11 -16 -11
-16 0 0 11 -2 11 -10 -1 -8 -12 -10 -12 -10 -1 0 11 -3 11 -17 0 -10 -7 -15
-9 -11 -5 4 5 0 15 -10 23 -16 12 -16 13 2 6 13 -4 17 -3 13 4 -12 19 25 25
51 10z m-143 -17 c-3 -5 -1 -10 6 -10 7 0 10 -3 6 -6 -9 -9 -28 6 -22 17 4 5
8 9 11 9 3 0 2 -4 -1 -10z m75 -351 c0 -6 -4 -7 -10 -4 -5 3 -10 11 -10 16 0
6 5 7 10 4 6 -3 10 -11 10 -16z"/>
<path d="M1984 1714 c3 -9 6 -18 6 -20 0 -2 5 -4 11 -4 8 0 9 4 0 13 -6 8 -8
17 -4 20 3 4 1 7 -6 7 -8 0 -11 -6 -7 -16z"/>
<path d="M1683 1515 c-7 -8 -9 -16 -4 -19 5 -3 12 1 15 10 8 22 4 25 -11 9z"/>
<path d="M1876 1137 c3 -10 9 -15 12 -12 3 3 0 11 -7 18 -10 9 -11 8 -5 -6z"/>
</g>
</svg>
